<svg width="128" height="128" viewBox="0 0 128 128" fill="none" xmlns="http://www.w3.org/2000/svg">
<path d="M46.6795 30C54.3775 16.6666 73.6225 16.6667 81.3205 30L102.105 66C109.803 79.3334 100.181 96 84.7846 96H43.2154C27.8194 96 18.1969 79.3333 25.8949 66L46.6795 30Z" fill="#112240"/>
<path d="M51.38 83C50.9933 83 50.6647 82.884 50.394 82.652C50.162 82.3813 50.046 82.0527 50.046 81.666V43.792C50.046 43.3667 50.162 43.038 50.394 42.806C50.6647 42.5353 50.9933 42.4 51.38 42.4H67.272C71.4093 42.4 74.522 43.386 76.61 45.358C78.698 47.33 79.742 49.9207 79.742 53.13C79.742 55.2953 79.2393 57.0933 78.234 58.524C77.2673 59.9547 76.1073 60.9987 74.754 61.656C76.378 62.468 77.7507 63.7247 78.872 65.426C79.9933 67.1273 80.554 69.08 80.554 71.284C80.554 73.4493 80.0513 75.4213 79.046 77.2C78.0793 78.9787 76.6293 80.39 74.696 81.434C72.7627 82.478 70.4427 83 67.736 83H51.38ZM66.402 59.568C68.838 59.568 70.694 59.0073 71.97 57.886C73.2847 56.7647 73.942 55.1987 73.942 53.188C73.942 51.216 73.304 49.708 72.028 48.664C70.752 47.62 68.8767 47.098 66.402 47.098H55.73V59.568H66.402ZM66.982 78.302C69.418 78.302 71.3127 77.6447 72.666 76.33C74.058 75.0153 74.754 73.3333 74.754 71.284C74.754 69.1573 74.058 67.456 72.666 66.18C71.3127 64.8653 69.418 64.208 66.982 64.208H55.73V78.302H66.982Z" fill="#00CFFD"/>
</svg>
