<svg width="15" height="17" viewBox="0 0 15 17" fill="none" xmlns="http://www.w3.org/2000/svg">
<path d="M0.546875 3.18059C0.546875 1.42402 2.22219 0 4.28879 0H10.7094C12.776 0 14.4513 1.42402 14.4513 3.18059C14.4513 4.2929 13.7796 5.27186 12.7621 5.84033C13.7796 6.40883 14.4513 7.38776 14.4513 8.50007C14.4513 10.2567 12.776 11.6807 10.7094 11.6807H10.6282C9.65934 11.6807 8.77649 11.3677 8.11195 10.8542V13.7848C8.11195 15.5649 6.39285 17 4.30895 17C2.2475 17 0.546875 15.5803 0.546875 13.8194C0.546875 12.7071 1.21855 11.7282 2.23594 11.1597C1.21848 10.5912 0.546875 9.61231 0.546875 8.50007C0.546875 7.38776 1.21859 6.40883 2.23602 5.84033C1.21863 5.27186 0.546875 4.2929 0.546875 3.18059ZM6.88625 6.36129H4.28879C2.8991 6.36129 1.77258 7.31887 1.77258 8.50007C1.77258 9.67672 2.89043 10.6314 4.2727 10.6388L4.28879 10.6388H6.88625V6.36129ZM8.11195 8.50007C8.11195 9.68127 9.23848 10.6388 10.6282 10.6388H10.7094C12.0991 10.6388 13.2256 9.68127 13.2256 8.50007C13.2256 7.31887 12.0991 6.36129 10.7094 6.36129H10.6282C9.23848 6.36129 8.11195 7.31887 8.11195 8.50007ZM4.28879 11.6807L4.2727 11.6807C2.89043 11.688 1.77258 12.6427 1.77258 13.8194C1.77258 14.9963 2.91418 15.9582 4.30895 15.9582C5.72621 15.9582 6.88625 14.9808 6.88625 13.7848V11.6807H4.28879ZM4.28879 1.04185C2.8991 1.04185 1.77258 1.99943 1.77258 3.18059C1.77258 4.36183 2.89914 5.31937 4.28879 5.31937H6.88625V1.04181H4.28879V1.04185ZM8.11195 5.31937H10.7094C12.0991 5.31937 13.2256 4.36183 13.2256 3.18059C13.2256 1.99939 12.0991 1.04185 10.7094 1.04185H8.11195V5.31937Z" fill="#8892B0"/>
</svg>
