<svg width="30" height="30" viewBox="0 0 30 30" fill="none" xmlns="http://www.w3.org/2000/svg">
<path d="M20 27.5338V23.9463C20.0469 23.3502 19.9664 22.751 19.7638 22.1885C19.5612 21.626 19.2412 21.113 18.825 20.6838C22.75 20.2463 26.875 18.7588 26.875 11.9338C26.8747 10.1885 26.2034 8.51025 25 7.24625C25.5699 5.71938 25.5296 4.03169 24.8875 2.53375C24.8875 2.53375 23.4125 2.09625 20 4.38375C17.135 3.60728 14.115 3.60728 11.25 4.38375C7.83753 2.09625 6.36254 2.53375 6.36254 2.53375C5.72051 4.03169 5.68022 5.71938 6.25004 7.24625C5.03769 8.51963 4.36569 10.2131 4.37504 11.9713C4.37504 18.7463 8.50003 20.2338 12.425 20.7213C12.0138 21.1462 11.6966 21.653 11.4942 22.2087C11.2917 22.7643 11.2085 23.3563 11.25 23.9463V27.5338" stroke="#8892B0" stroke-width="1.5" stroke-linecap="round" stroke-linejoin="round"/>
<path d="M11.25 25.0337C7.5 26.25 4.375 25.0337 2.5 21.2838" stroke="#8892B0" stroke-width="1.5" stroke-linecap="round" stroke-linejoin="round"/>
</svg>
