<svg width="161" height="127" viewBox="0 0 161 127" fill="none" xmlns="http://www.w3.org/2000/svg">
<path d="M138.536 73.1003C132.935 73.1308 128.067 74.5496 123.991 76.6471C122.494 73.5316 120.999 70.7561 120.735 68.7202C120.442 66.3455 120.09 64.8956 120.442 62.0579C120.794 59.2203 122.377 55.1794 122.348 54.8712C122.319 54.563 121.996 53.113 118.77 53.0826C115.544 53.0515 112.758 53.7302 112.436 54.6245C112.113 55.5188 111.497 57.5547 111.087 59.6516C110.53 62.7366 104.635 73.7472 101.263 79.5152C100.178 77.2642 99.2394 75.2898 99.0337 73.7168C98.7407 71.3422 98.3885 69.8923 98.7407 67.0546C99.0928 64.2169 100.676 60.1768 100.647 59.8679C100.617 59.5596 100.295 58.1097 97.069 58.0793C93.8427 58.0482 91.0567 58.7268 90.7347 59.6211C90.4121 60.5161 90.0599 62.6129 89.3857 64.6489C88.7109 66.6848 80.881 85.0681 78.8282 89.8174C77.9987 91.7397 77.1285 93.6423 76.2183 95.5238C76.2183 95.5238 76.1887 95.6164 76.1007 95.7705C75.8147 96.3604 75.5216 96.9466 75.2215 97.5286V97.5591C74.7812 98.3925 74.3121 99.1631 74.0775 99.1631C73.9014 99.1631 73.5787 96.9426 74.136 93.9197C75.3089 87.5353 78.0949 77.6035 78.066 77.2642C78.066 77.079 78.5936 75.3519 76.2478 74.457C73.9599 73.5627 73.1391 75.043 72.9335 75.043C72.7285 75.043 72.5813 75.5676 72.5813 75.5676C72.5813 75.5676 75.1334 64.4022 67.7136 64.4022C63.0804 64.4022 56.687 69.7381 53.5198 74.5496C49.9194 76.6103 46.322 78.6769 42.7278 80.7494C40.9983 81.7674 39.209 82.7854 37.5374 83.7412C37.4198 83.6182 37.3028 83.4634 37.1852 83.3404C28.2113 73.2545 11.6132 66.1292 12.317 52.5892C12.5811 47.654 14.1936 34.6994 44.1944 18.9692C68.8865 6.16869 88.5354 9.71543 91.9372 17.5808C96.8049 28.8084 81.4093 49.6589 55.8952 52.6811C46.1591 53.8228 41.0561 49.8745 39.7662 48.3942C38.4172 46.8517 38.2116 46.7591 37.7129 47.068C36.8921 47.531 37.4198 48.9187 37.7129 49.7204C38.4757 51.8172 41.6133 55.5188 46.9213 57.3391C51.6136 58.9425 63.0213 59.8374 76.834 54.2236C92.2887 47.9312 104.371 30.4429 100.823 15.7922C97.2741 0.925307 73.8133 -3.97875 51.6136 4.31793C38.4172 9.25373 24.1058 17.0259 13.8125 27.1429C1.58344 39.1715 -0.352332 49.6278 0.439461 54.008C3.28463 69.5529 23.6662 79.6699 31.8187 87.1649C31.4081 87.4116 31.0263 87.6279 30.7043 87.8131C26.6277 89.9411 11.085 98.4844 7.21404 107.522C2.81547 117.762 7.91841 125.104 11.2906 126.09C21.76 129.144 32.5225 123.654 38.2996 114.585C44.0768 105.517 43.373 93.7345 40.7046 88.337C40.675 88.2755 40.6461 88.2133 40.587 88.1518C41.6429 87.5042 42.7278 86.8256 43.7837 86.178C45.7244 84.9714 47.6898 83.8091 49.6784 82.6921C48.681 85.5609 47.9477 88.9846 47.5961 93.9197C47.1559 99.7187 49.4137 107.244 52.3758 110.205C53.6959 111.501 55.2499 111.532 56.2473 111.532C59.7076 111.532 61.2623 108.509 62.9924 104.931C65.1036 100.552 67.0098 95.4622 67.0098 95.4622C67.0098 95.4622 64.6344 109.219 71.0864 109.219C73.4322 109.219 75.8076 106.011 76.8635 104.376V104.406C76.8635 104.406 76.922 104.314 77.0396 104.098C77.2742 103.697 77.4207 103.45 77.4207 103.45V103.389C78.3591 101.661 80.4709 97.7443 83.6085 91.2362C87.6556 82.8469 91.556 72.3602 91.556 72.3602C91.556 72.3602 91.9082 74.92 93.1101 79.1765C93.8144 81.6748 95.2798 84.4199 96.4533 87.0723C95.515 88.4607 94.9282 89.2313 94.9282 89.2313L94.9578 89.2624C94.1949 90.3108 93.3742 91.4518 92.4648 92.5631C89.2681 96.5722 85.4563 101.169 84.928 102.494C84.3117 104.067 84.4588 105.209 85.6324 106.134C86.4826 106.813 88.0071 106.905 89.5618 106.813C92.4359 106.597 94.4591 105.856 95.4559 105.394C97.0105 104.808 98.8287 103.913 100.529 102.587C103.668 100.15 105.573 96.6648 105.398 92.0696C105.31 89.5402 104.518 87.0108 103.55 84.6355C103.844 84.2042 104.107 83.7723 104.401 83.3404C109.357 75.7217 113.199 67.3628 113.199 67.3628C113.199 67.3628 113.551 69.9227 114.753 74.1798C115.339 76.3388 116.542 78.683 117.597 80.9651C112.934 84.9444 110.06 89.5706 109.034 92.5935C107.187 98.2073 108.623 100.736 111.351 101.322C112.582 101.6 114.342 100.983 115.632 100.397C117.275 99.8418 119.21 98.886 121.058 97.4665C124.196 95.0303 127.216 91.637 127.04 87.0419C126.952 84.9444 126.424 82.8773 125.691 80.8725C129.65 79.1461 134.753 78.1896 141.263 78.9913C155.223 80.7183 157.979 89.8789 157.451 93.7352C156.923 97.5902 153.991 99.6876 153.023 100.335C152.055 100.983 151.733 101.199 151.821 101.661C151.938 102.34 152.407 102.31 153.228 102.186C154.372 101.97 160.56 99.0705 160.824 91.9764C161.264 82.9084 153.052 73.0077 138.536 73.1003V73.1003ZM30.8509 111.285C26.2171 116.59 19.7658 118.595 16.9797 116.899C13.9886 115.078 15.1615 107.244 20.8506 101.631C24.3109 98.2073 28.7685 95.0297 31.7307 93.0869C32.4049 92.655 33.4023 92.0385 34.6048 91.2673C34.8098 91.1436 34.9274 91.0821 34.9274 91.0821L35.6312 90.619C37.7129 98.6386 35.7192 105.702 30.8509 111.285V111.285ZM64.576 87.1649C62.9628 91.2984 59.5906 101.878 57.5379 101.292C55.7782 100.798 54.6927 92.7787 57.1857 84.8518C58.4466 80.8725 61.1151 76.1225 62.6697 74.2724C65.1917 71.3111 67.9777 70.3235 68.6519 71.5274C69.5028 73.1003 65.5728 84.574 64.576 87.1649V87.1649ZM92.4063 101.168C91.7315 101.538 91.0869 101.785 90.7932 101.6C90.5882 101.476 91.0869 100.983 91.0869 100.983C91.0869 100.983 94.5767 97.0352 95.9546 95.246C96.747 94.1975 97.6847 92.9639 98.6822 91.5755V91.9764C98.6822 96.6959 94.3415 99.8729 92.4057 101.168H92.4063ZM113.873 96.0172C113.374 95.6468 113.462 94.4132 115.134 90.5575C115.779 89.0461 117.303 86.5174 119.914 84.0805C120.207 85.0674 120.413 86.0239 120.383 86.9182C120.354 92.8713 116.307 95.0918 113.873 96.0172Z" fill="#8993B1"/>
</svg>
