<svg width="157" height="120" viewBox="0 0 157 120" fill="none" xmlns="http://www.w3.org/2000/svg">
<g clip-path="url(#clip0_719_8)">
<path d="M46.7044 79.1853L51.4758 96.5447C52.5478 100.486 52.9949 103.238 52.8158 104.806C55.4253 96.969 57.2486 88.4287 58.2859 79.1853H64.0232C61.5563 94.2338 58.3025 105.169 54.2637 111.991C51.117 117.248 47.6697 119.876 43.9158 119.876C42.915 119.876 41.6811 119.537 40.2168 118.864V115.237C40.9322 115.354 41.7715 115.417 42.7368 115.417C44.488 115.417 45.8995 114.873 46.9734 113.787C48.2591 112.463 48.9027 110.976 48.9027 109.327C48.9027 108.201 48.4008 105.891 47.4014 102.396L40.7535 79.1853H46.7041H46.7044ZM10.1875 68.5156L18.9268 98.4145H18.9807L27.7737 68.5156H34.9576C36.5307 83.3434 37.4598 96.9102 37.745 109.208H31.6882C31.4751 97.7121 30.8848 86.9024 29.9195 76.7767H29.8668L20.6437 109.208H16.0312L6.86384 76.7767H6.80988C6.12975 86.5012 5.70168 97.3108 5.52321 109.208H0C0.35693 94.7389 1.25017 81.1761 2.67973 68.5156H10.1878H10.1875Z" fill="#8993B1"/>
<path d="M108.09 67.912C117.491 67.912 122.191 74.6464 122.191 88.1088C122.191 95.4243 120.778 100.95 117.953 104.683C117.444 105.365 116.881 105.955 116.289 106.501L122.942 110.189L122.935 110.189L120.573 114.763L111.91 109.094C110.474 109.571 108.893 109.81 107.172 109.81C102.556 109.81 99.1079 108.301 96.8283 105.288C94.3262 101.955 93.0757 96.7075 93.0757 89.5549C93.0757 82.2807 94.4868 76.7758 97.3122 73.0379C99.8856 69.6188 103.479 67.9116 108.09 67.9116V67.912ZM79.3026 67.9711C82.6625 67.9711 85.7175 68.9792 88.4693 70.9883L87.0717 74.4807C84.717 73.3584 82.3954 72.7948 80.106 72.7948C78.2484 72.7948 76.817 73.2961 75.8192 74.305C74.8158 75.3049 74.1952 76.5915 74.1952 78.1601C74.1952 80.5704 75.7266 82.6606 78.5541 84.4266C79.4804 84.9944 80.4035 85.5687 81.3234 86.1496L81.5343 86.2826L81.6401 86.3493L81.8514 86.4824L81.9569 86.5491L82.1679 86.6825C84.3082 88.0355 86.3222 89.327 86.3222 89.327C89.1495 91.5774 90.5588 93.9767 90.5588 97.9285C90.5588 101.38 89.431 104.212 87.1827 106.429C84.9328 108.636 81.9103 109.742 78.1251 109.742C74.5849 109.742 71.1539 108.469 67.8306 105.943L69.3852 102.448C72.2453 104.055 74.8333 104.858 77.1573 104.858C79.3369 104.858 81.0431 104.312 82.2773 103.235C83.5091 102.149 84.2472 100.635 84.2472 98.7155C84.2472 96.2994 82.7483 94.2339 79.9987 92.5013C79.138 91.9681 78.2799 91.4298 77.4244 90.8863L77.2138 90.7525C76.8268 90.5074 76.4371 90.2591 76.0553 90.016L75.8483 89.884C73.9916 88.6998 72.3863 87.6652 72.3863 87.6652C69.6376 85.4106 68.2593 82.9917 68.2593 79.0059C68.2593 75.7096 69.2871 73.0451 71.3398 71.0182C73.3973 68.9868 76.0519 67.9711 79.3026 67.9711V67.9711ZM133.239 68.5157V104.202H144.658V109.208H127.448V68.5157H133.239ZM151.003 104.218V105.063H149.747V109.203H148.788V105.063H147.484V104.218H151.003H151.003ZM153.321 104.218L154.526 107.616L155.634 104.218H156.994V109.203H156.09V105.409L154.829 109.203H154.177L152.915 105.409H152.866V109.203H152.01V104.218H153.321H153.321ZM107.499 72.9162C101.959 72.9162 99.1876 78.0429 99.1876 88.2893C99.1876 94.1586 99.922 98.4147 101.388 101.067C102.746 103.522 104.872 104.748 107.768 104.748C113.308 104.748 116.079 99.581 116.079 89.2527C116.079 83.4655 115.345 79.2459 113.88 76.5919C112.521 74.1423 110.395 72.9162 107.499 72.9162H107.499Z" fill="#EBEBEB"/>
<path d="M92.9792 2.5214C94.8168 -2.54198 101.243 1.29252 103.736 3.06123C104.347 3.50375 105.048 4.43865 105.749 4.78421C106.842 4.83234 107.934 4.92827 109.029 4.97951C111.083 5.52071 113.007 5.96289 114.626 6.99647C122.147 11.9632 127.043 17.0245 131.549 25.3847C132.512 27.1554 132.993 29.0717 133.78 30.9879C134.871 33.8441 136.098 36.8424 137.365 39.5433C137.932 40.8237 138.371 42.2476 139.159 43.329C139.466 43.8234 140.34 43.9692 140.862 44.2645C142.306 45.1025 144.055 45.7386 145.413 46.722C147.948 48.4948 150.4 50.6074 152.628 52.7701C153.459 53.6049 154.025 54.7867 154.817 55.6697V56.1153C154.114 56.357 153.414 56.6046 152.713 56.803C151.183 57.2438 149.827 57.1441 148.343 57.5852C147.425 57.8837 146.286 58.2774 145.324 58.3774L145.413 58.4778C145.979 60.2916 149.041 61.7667 150.442 62.8515C152.143 64.2282 153.72 65.8979 154.989 67.8155C155.427 68.3048 155.865 68.75 156.301 69.2379C156.606 69.7324 156.692 70.3719 157 70.8127V70.962C156.659 70.8268 156.413 70.5689 156.18 70.2994L156.041 70.1367C155.902 69.9751 155.762 69.8163 155.603 69.6853C154.637 68.946 153.679 68.0617 152.713 67.3743C151.054 66.1936 149.129 65.5083 147.425 64.3231C146.462 63.6351 145.543 62.8515 144.625 62.0641C143.792 61.374 142.875 60.0488 142.352 59.0655C142.044 58.5222 142.002 57.8837 141.65 57.4907C141.713 56.8343 142.249 56.6393 142.79 56.4791L142.915 56.4423C143.101 56.388 143.284 56.3337 143.444 56.2618C145.717 55.1794 148.427 54.7867 151.927 54.8851C151.796 53.8996 149.609 52.6718 148.91 52.0817C147.509 50.9491 146.025 49.7674 144.539 48.7365C143.751 48.1967 142.393 47.8027 141.521 47.3615C140.34 46.8203 137.715 46.2794 137.061 45.2486C135.949 43.6236 135.151 41.6854 134.376 39.7276L134.165 39.1933C134.094 39.0152 134.024 38.8372 133.953 38.6593C133.037 36.3016 131.899 33.8435 130.98 31.4294C130.5 30.2517 130.28 29.2181 129.754 28.0886C126.562 21.1575 121.839 15.3545 116.113 11.2735C114.231 9.94558 112.133 8.7167 109.816 7.88151C108.503 7.43693 106.928 7.68277 105.529 7.34168H104.609C103.823 7.09343 103.167 6.15956 102.554 5.66719C101.2 4.63636 99.8445 3.94421 98.2255 3.20873C97.6582 2.91372 96.0382 2.22673 95.4728 2.76759C95.1226 2.86627 94.945 3.01446 94.8589 3.4085C94.5105 3.99647 94.8169 4.8822 95.0336 5.42444C95.6905 6.99578 96.6079 7.92965 97.4408 9.25756C98.1816 10.4352 99.1019 11.7631 99.6271 13.0436C100.76 15.796 101.288 18.8455 102.338 21.5976C102.728 22.6326 103.344 23.8102 103.911 24.7437C104.391 25.4847 105.265 26.0204 105.529 26.9584C106.056 27.9418 104.741 31.1866 104.436 32.2171C103.297 36.2493 103.518 41.8542 104.83 45.3494L104.9 45.5337L104.969 45.7204C105.448 47.0005 105.961 48.3789 107.235 48.7369C107.322 48.6392 107.235 48.6904 107.408 48.6392C107.717 45.9339 107.803 43.3286 108.635 41.2119C109.116 39.8885 110.075 38.9529 110.733 37.8726C111.171 38.1669 111.171 39.0543 111.432 39.6416C112.002 41.1648 112.613 42.8349 113.314 44.3625C114.754 47.5087 116.375 50.5589 118.21 53.311C118.825 54.294 119.698 55.3761 120.485 56.2614C120.835 56.6043 121.228 56.8023 121.491 57.2435H121.577V57.392C120.265 56.8498 119.433 55.3279 118.387 54.4394C116.417 52.7694 114.058 50.2614 112.7 47.8549C112.133 46.4734 111.519 45.1492 110.907 43.7746V43.6752C110.645 44.0679 110.733 44.4578 110.602 45.0519C110.034 47.5087 110.471 50.3113 108.503 51.195C106.273 52.2299 104.609 49.5249 103.911 48.2957C101.68 44.2157 101.069 37.3327 102.642 31.7766C102.992 30.5467 103.039 29.0717 103.649 28.0896C103.517 27.2019 102.907 26.9591 102.554 26.4151C101.942 25.4854 101.418 24.4023 100.939 23.3698C100.018 21.3528 99.3634 18.9428 98.6646 16.7797C98.3573 15.8964 98.2693 15.0096 97.963 14.1734C97.4405 12.8971 96.4773 11.6166 95.7343 10.4875C94.7282 8.86455 91.798 5.71911 92.9792 2.5214V2.5214ZM107.321 12.1541C107.438 12.2854 107.579 12.4003 107.725 12.5134L107.901 12.6488C108.136 12.8311 108.363 13.0229 108.502 13.2843C108.723 13.6302 108.764 13.9716 109.028 14.3182C109.028 15.5 108.723 16.2856 108.106 16.7753C108.106 16.7753 108.064 16.8268 108.021 16.875C107.672 16.0872 107.365 15.3036 107.013 14.5166C106.58 13.8296 105.967 13.2846 105.613 12.4996H105.528V12.4009C106.056 12.2548 106.58 12.1541 107.321 12.1541Z" fill="#8993B1"/>
</g>
<defs>
<clipPath id="clip0_719_8">
<rect width="157" height="120" fill="white"/>
</clipPath>
</defs>
</svg>
