<svg width="105" height="104" viewBox="0 0 105 104" fill="none" xmlns="http://www.w3.org/2000/svg">
<path d="M0 0H105V104H0V0Z" fill="#8993B1"/>
<path d="M27.6083 86.9098L35.6433 82.0933C37.1937 84.8156 38.6038 87.119 41.9863 87.119C45.2286 87.119 47.2733 85.8629 47.2733 80.9765V47.7461H57.1404V81.1147C57.1404 91.2372 51.1497 95.8449 42.4092 95.8449C34.5158 95.8449 29.9339 91.7958 27.6079 86.909" fill="#EBEBEB"/>
<path d="M62.4999 85.8624L70.5341 81.2551C72.6492 84.6762 75.3981 87.1892 80.2609 87.1892C84.3498 87.1892 86.9567 85.1645 86.9567 82.3719C86.9567 79.0212 84.2784 77.8341 79.7675 75.88L77.3012 74.8319C70.1821 71.8309 65.46 68.061 65.46 60.1025C65.46 52.7721 71.0984 47.187 79.909 47.187C86.1819 47.187 90.6928 49.3515 93.9347 55.0061L86.2517 59.8933C84.5598 56.8915 82.728 55.7049 79.9086 55.7049C77.0186 55.7049 75.1861 57.52 75.1861 59.8933C75.1861 62.8252 77.0186 64.0127 81.2473 65.8278L83.714 66.8747C92.1017 70.4355 96.8238 74.0653 96.8238 82.2326C96.8238 91.0295 89.8463 95.846 80.4721 95.846C71.3097 95.846 65.3891 91.5178 62.4995 85.8628" fill="#EBEBEB"/>
</svg>
