<svg width="239" height="145" viewBox="0 0 239 145" fill="none" xmlns="http://www.w3.org/2000/svg">
<g clip-path="url(#clip0_780_7)">
<path d="M118.151 144.582C117.342 144.582 116.587 144.368 115.885 143.995L108.71 139.779C107.631 139.191 108.17 138.978 108.494 138.871C109.951 138.391 110.22 138.284 111.731 137.431C111.893 137.323 112.109 137.377 112.271 137.484L117.774 140.739C117.989 140.846 118.259 140.846 118.421 140.739L139.947 128.411C140.163 128.304 140.271 128.09 140.271 127.824V103.22C140.271 102.952 140.163 102.74 139.947 102.632L118.421 90.3573C118.205 90.2502 117.935 90.2502 117.774 90.3573L96.2473 102.632C96.0316 102.739 95.9233 103.006 95.9233 103.219V127.823C95.9233 128.037 96.0316 128.303 96.2473 128.411L102.128 131.773C105.311 133.374 107.307 131.506 107.307 129.638V105.354C107.307 105.034 107.577 104.714 107.955 104.714H110.706C111.03 104.714 111.353 104.981 111.353 105.354V129.638C111.353 133.854 109.033 136.309 104.987 136.309C103.746 136.309 102.775 136.309 100.024 134.975L94.3591 131.773C92.9564 130.973 92.0933 129.478 92.0933 127.877V103.273C92.0933 101.672 92.9564 100.177 94.3591 99.3769L115.885 87.0482C117.234 86.301 119.069 86.301 120.417 87.0482L141.943 99.3769C143.346 100.177 144.209 101.672 144.209 103.273V127.877C144.209 129.478 143.346 130.973 141.943 131.773L120.417 144.102C119.715 144.422 118.907 144.582 118.151 144.582H118.151ZM124.787 127.663C115.346 127.663 113.403 123.394 113.403 119.765C113.403 119.444 113.673 119.124 114.051 119.124H116.856C117.18 119.124 117.45 119.337 117.45 119.658C117.881 122.486 119.122 123.874 124.841 123.874C129.373 123.874 131.315 122.86 131.315 120.458C131.315 119.071 130.775 118.057 123.708 117.363C117.827 116.775 114.159 115.495 114.159 110.852C114.159 106.529 117.828 103.967 123.978 103.967C130.883 103.967 134.282 106.315 134.714 111.438C134.714 111.599 134.66 111.759 134.552 111.919C134.444 112.026 134.282 112.132 134.12 112.132H131.315C131.045 112.132 130.775 111.919 130.722 111.652C130.074 108.717 128.402 107.756 123.978 107.756C119.014 107.756 118.421 109.464 118.421 110.745C118.421 112.292 119.122 112.773 125.812 113.627C132.448 114.481 135.577 115.708 135.577 120.298C135.523 124.995 131.639 127.663 124.787 127.663Z" fill="#8993B1"/>
<path d="M51.3608 48.3544C51.3608 47.3939 50.8212 46.486 49.9581 46.0058L27.0832 32.9835C26.7051 32.7697 26.2737 32.663 25.8424 32.6094H25.6263C25.195 32.6094 24.7632 32.7697 24.3856 32.9835L1.51063 46.0058C0.647061 46.486 0.10791 47.3934 0.10791 48.3544L0.162059 83.3654C0.162059 83.8457 0.431867 84.3259 0.863188 84.5397C1.29497 84.8066 1.83413 84.8066 2.21223 84.5397L15.8077 76.8543C16.6708 76.374 17.2104 75.4666 17.2104 74.5061V58.1211C17.2104 57.1606 17.7496 56.2532 18.6131 55.7729L24.3856 52.4638C24.8173 52.1969 25.3028 52.0898 25.7883 52.0898C26.2737 52.0898 26.7592 52.1969 27.1373 52.4638L32.9097 55.7729C33.7733 56.2532 34.3125 57.1601 34.3125 58.1211V74.5061C34.3125 75.4666 34.8521 76.374 35.7152 76.8543L49.3106 84.5397C49.5207 84.6706 49.7638 84.74 50.012 84.74C50.2602 84.74 50.5033 84.6706 50.7134 84.5397C51.1452 84.3259 51.415 83.8457 51.415 83.3654L51.3608 48.3544ZM161.312 0.160354C160.88 -0.0534514 160.341 -0.0534514 159.963 0.160354C159.531 0.427265 159.261 0.853953 159.261 1.33421V36.0257C159.261 36.3457 159.1 36.6657 158.776 36.8795C158.452 37.0393 158.128 37.0393 157.805 36.8795L152.086 33.624C151.667 33.3878 151.193 33.2636 150.71 33.2636C150.228 33.2636 149.754 33.3878 149.334 33.624L126.46 46.6998C125.596 47.1801 125.057 48.0875 125.057 49.048V75.1461C125.057 76.1066 125.596 77.0145 126.46 77.4948L149.334 90.5706C149.754 90.8068 150.228 90.931 150.71 90.931C151.193 90.931 151.667 90.8068 152.086 90.5706L174.961 77.4948C175.824 77.0145 176.364 76.1071 176.364 75.1461V10.0873C176.364 9.07324 175.824 8.16629 174.961 7.68558L161.312 0.160354H161.312ZM159.208 66.5537C159.208 66.8206 159.1 67.034 158.884 67.1407L151.061 71.6236C150.952 71.6764 150.832 71.7038 150.71 71.7038C150.589 71.7038 150.469 71.6764 150.36 71.6236L142.537 67.1407C142.321 67.034 142.213 66.7671 142.213 66.5537V57.5873C142.213 57.3204 142.321 57.107 142.537 57.0004L150.36 52.5169C150.469 52.4642 150.589 52.4368 150.71 52.4368C150.832 52.4368 150.952 52.4642 151.061 52.5169L158.884 57.0004C159.1 57.1066 159.208 57.3739 159.208 57.5873V66.5537ZM237.435 57.3739C238.299 56.8937 238.784 55.9863 238.784 55.0253V48.6744C238.784 47.7139 238.245 46.8065 237.435 46.3262L214.722 33.3039C214.303 33.0678 213.829 32.9436 213.347 32.9436C212.864 32.9436 212.39 33.0678 211.971 33.3039L189.096 46.3793C188.232 46.8596 187.693 47.767 187.693 48.7275V74.8261C187.693 75.7866 188.233 76.694 189.096 77.1743L211.809 89.9832C212.672 90.4635 213.697 90.4635 214.507 89.9832L228.264 82.4054C228.696 82.1916 228.965 81.7113 228.965 81.2311C228.965 80.7508 228.696 80.2705 228.264 80.0567L205.281 66.9809C204.849 66.714 204.579 66.2873 204.579 65.807V57.6413C204.579 57.1611 204.849 56.6808 205.281 56.467L212.456 52.4107C212.666 52.2799 212.909 52.2105 213.158 52.2105C213.406 52.2105 213.649 52.2799 213.859 52.4107L221.035 56.467C221.466 56.7339 221.736 57.1606 221.736 57.6413V64.0458C221.736 64.526 222.005 65.0063 222.437 65.2196C222.647 65.3504 222.89 65.4199 223.139 65.4199C223.387 65.4199 223.63 65.3504 223.84 65.2196L237.435 57.3739V57.3739Z" fill="#E5E6E7"/>
<path d="M212.996 56.146C213.076 56.0938 213.17 56.0659 213.266 56.0659C213.362 56.0659 213.455 56.0938 213.536 56.146L217.906 58.6544C218.067 58.7615 218.175 58.9213 218.175 59.1347V64.1519C218.175 64.3653 218.068 64.5255 217.906 64.6322L213.536 67.1406C213.455 67.1928 213.362 67.2207 213.266 67.2207C213.17 67.2207 213.076 67.1928 212.996 67.1406L208.626 64.6322C208.464 64.5255 208.356 64.3653 208.356 64.1519V59.1351C208.356 58.9213 208.464 58.7611 208.626 58.6549L212.996 56.146V56.146Z" fill="#8993B1"/>
<path d="M112.379 46.3792L89.5578 33.4105C89.3336 33.2984 89.0985 33.209 88.8562 33.1436L63.2837 76.481C63.4955 76.7369 63.7514 76.9537 64.0394 77.1215L86.8602 90.0907C87.5076 90.4643 88.2629 90.5709 88.9641 90.3571L112.972 46.9135C112.81 46.7001 112.594 46.5394 112.379 46.3797V46.3792Z" fill="url(#paint0_linear_780_7)"/>
<path fill-rule="evenodd" clip-rule="evenodd" d="M86.1047 28.6602L85.7812 28.8204H86.2126L86.1047 28.6602V28.6602Z" fill="url(#paint1_linear_780_7)"/>
<path fill-rule="evenodd" clip-rule="evenodd" d="M112.433 77.0676C113.08 76.694 113.566 76.0535 113.782 75.3599L88.7481 33.0901C88.1007 32.9834 87.3991 33.0365 86.8062 33.4101L64.147 46.3262L88.5861 90.4103C88.9415 90.3528 89.2868 90.245 89.6112 90.0903L112.432 77.068L112.433 77.0676Z" fill="url(#paint2_linear_780_7)"/>
<path fill-rule="evenodd" clip-rule="evenodd" d="M114.536 76.6409L114.375 76.374V76.7476L114.536 76.6409H114.536Z" fill="url(#paint3_linear_780_7)"/>
<path fill-rule="evenodd" clip-rule="evenodd" d="M112.433 77.0674L89.6657 90.0366C89.3443 90.1987 88.9979 90.3069 88.6406 90.3566L89.0724 91.1573L114.321 76.6943V76.3738L113.674 75.3062C113.566 76.0533 113.08 76.6938 112.433 77.0674V77.0674Z" fill="url(#paint4_linear_780_7)"/>
<path fill-rule="evenodd" clip-rule="evenodd" d="M112.433 77.0674L89.6657 90.0366C89.3443 90.1987 88.9979 90.3069 88.6406 90.3566L89.0724 91.1573L114.321 76.6943V76.3738L113.674 75.3062C113.566 76.0533 113.08 76.6938 112.433 77.0674V77.0674Z" fill="url(#paint5_linear_780_7)"/>
</g>
<defs>
<linearGradient id="paint0_linear_780_7" x1="84.7875" y1="64.7679" x2="146.829" y2="30.6947" gradientUnits="userSpaceOnUse">
<stop offset="0.1376" stop-color="#6C6E75"/>
<stop offset="0.4032" stop-color="#8993B1"/>
<stop offset="0.7136" stop-color="#6C6E75"/>
<stop offset="0.9081" stop-color="#6C6E75"/>
</linearGradient>
<linearGradient id="paint1_linear_780_7" x1="66.7434" y1="28.6817" x2="108.762" y2="28.6817" gradientUnits="userSpaceOnUse">
<stop offset="0.09192" stop-color="#6CC04A"/>
<stop offset="0.2864" stop-color="#66B848"/>
<stop offset="0.5968" stop-color="#54A044"/>
<stop offset="0.8624" stop-color="#41873F"/>
</linearGradient>
<linearGradient id="paint2_linear_780_7" x1="61.9685" y1="61.7242" x2="114.526" y2="61.7242" gradientUnits="userSpaceOnUse">
<stop offset="0.09192" stop-color="#6C6E75"/>
<stop offset="0.2864" stop-color="#8993B1"/>
<stop offset="0.5968" stop-color="#6C6E75"/>
<stop offset="0.8624" stop-color="#8993B1"/>
</linearGradient>
<linearGradient id="paint3_linear_780_7" x1="98.7059" y1="76.5093" x2="114.42" y2="76.5093" gradientUnits="userSpaceOnUse">
<stop offset="0.09192" stop-color="#6C6E75"/>
<stop offset="0.2864" stop-color="#8993B1"/>
<stop offset="0.538828" stop-color="#6C6E75"/>
<stop offset="0.8624" stop-color="#8993B1"/>
</linearGradient>
<linearGradient id="paint4_linear_780_7" x1="61.9687" y1="83.2753" x2="114.526" y2="83.2753" gradientUnits="userSpaceOnUse">
<stop offset="0.09192" stop-color="#6C6E75"/>
<stop offset="0.2864" stop-color="#8993B1"/>
<stop offset="0.5968" stop-color="#8F89B1"/>
<stop offset="0.8624" stop-color="#8993B1"/>
</linearGradient>
<linearGradient id="paint5_linear_780_7" x1="122.183" y1="41.8492" x2="109.142" y2="110.921" gradientUnits="userSpaceOnUse">
<stop stop-color="#8993B1"/>
<stop offset="0.3288" stop-color="#6C6E75"/>
<stop offset="0.6352" stop-color="#8993B1"/>
<stop offset="0.9319" stop-color="#6C6E75"/>
<stop offset="1" stop-color="#6C6E75"/>
</linearGradient>
<clipPath id="clip0_780_7">
<rect width="239" height="145" fill="white"/>
</clipPath>
</defs>
</svg>
