<svg width="97" height="143" viewBox="0 0 97 143" fill="none" xmlns="http://www.w3.org/2000/svg">
<path d="M96.8312 28.0317L88.0251 131.166L48.4407 142.639L8.96552 131.182L0.168457 28.0317H96.8312Z" fill="#8993B1"/>
<path d="M48.5 133.869L80.4861 124.599L88.0112 36.4658H48.5V133.869Z" fill="#8993B1"/>
<path d="M31.3812 61.7681H48.5002V49.1172H18.1562L18.4457 52.5112L21.4201 87.3739H48.5002V74.7229H32.4872L31.3812 61.7681V61.7681Z" fill="#EBEBEB"/>
<path d="M34.1082 93.6992H21.9604L23.6557 113.563L48.4441 120.757L48.4998 120.741V107.579L48.4468 107.593L34.9698 103.789L34.1082 93.6992V93.6992Z" fill="#EBEBEB"/>
<path d="M9.16211 0H15.3118V6.35181H20.9374V0H27.0874V19.2349H20.9378V12.7939H15.3121V19.2349H9.16249V0H9.16211Z" fill="#EBEBEB"/>
<path d="M35.1738 6.37875H29.7607V0H46.741V6.37875H41.3246V19.2349H35.1749V6.37875H35.1746H35.1738Z" fill="#EBEBEB"/>
<path d="M49.436 0H55.8483L59.7927 6.75863L63.7333 0H70.1482V19.2349H64.0235V9.70102L59.7927 16.5401H59.6866L55.4531 9.70102V19.2349H49.436V0Z" fill="#EBEBEB"/>
<path d="M73.2084 0H79.3599V12.8771H88.0081V19.2349H73.208V0H73.2084Z" fill="#EBEBEB"/>
<path d="M48.4584 87.3736H63.3596L61.9546 103.781L48.458 107.589V120.751L73.2661 113.563L73.448 111.426L76.2921 78.1198L76.5872 74.7227H48.4584V87.3736Z" fill="#E6F1FF"/>
<path d="M48.4585 61.7372V61.7681H77.6885L77.931 58.9248L78.4826 52.5112L78.7718 49.1172H48.4585V61.7376V61.7372Z" fill="white"/>
</svg>
