<svg width="97" height="143" viewBox="0 0 97 143" fill="none" xmlns="http://www.w3.org/2000/svg">
<path d="M48.4407 142.639L8.96552 131.182L0.168457 28.0317H96.8312L88.0251 131.166L48.4407 142.639V142.639Z" fill="#8993B1"/>
<path d="M80.4861 124.599L88.0112 36.4658H48.5V133.869L80.4861 124.599V124.599Z" fill="#8993B1"/>
<path d="M20.3354 74.7227L21.4199 87.3736H48.4999V74.7227H20.3354Z" fill="#EBEBEB"/>
<path d="M18.1562 49.1172L19.2562 61.7681H48.5002V49.1172H18.1562V49.1172Z" fill="#EBEBEB"/>
<path d="M48.4998 107.579L48.4468 107.593L34.9698 103.789L34.1082 93.6992H21.9604L23.6557 113.563L48.4441 120.757L48.4998 120.741V107.579Z" fill="#EBEBEB"/>
<path d="M22.918 0H37.5741V6.40767H29.0472V12.8153H37.5748V19.2226H22.918V0Z" fill="#EBEBEB"/>
<path d="M40.5053 0H55.1617V5.57185H46.6345V6.68614H55.1617V19.5015H40.5056V13.6504H49.0329V12.5361H40.5049V0H40.5053Z" fill="#EBEBEB"/>
<path d="M58.0938 0H72.7502V5.57185H64.2229V6.68614H72.7502V19.5015H58.0938V13.6504H66.621V12.5361H58.0941V0H58.0938Z" fill="#EBEBEB"/>
<path d="M76.5872 74.7229L78.7716 49.1172H48.4584V61.7681H65.5099L64.4088 74.7229H48.4584V87.3738H63.3596L61.9546 103.781L48.458 107.59V120.751L73.2661 113.563L73.448 111.426L76.2921 78.12L76.5872 74.7229V74.7229Z" fill="white"/>
</svg>
