<svg width="122" height="112" viewBox="0 0 122 112" fill="none" xmlns="http://www.w3.org/2000/svg">
<path d="M109.373 7H12.627C9.86447 7 7.625 9.05591 7.625 11.592V100.408C7.625 102.944 9.86447 105 12.627 105H109.373C112.136 105 114.375 102.944 114.375 100.408V11.592C114.375 9.05591 112.136 7 109.373 7Z" fill="#8993B1"/>
<path fill-rule="evenodd" clip-rule="evenodd" d="M69.5591 83.1566V93.8946C71.6843 94.8576 73.9492 95.5353 76.2844 95.9071C78.9828 96.3644 81.7219 96.5894 84.466 96.5791C87.1404 96.5908 89.8087 96.3432 92.4265 95.8406C94.7768 95.4046 97.0193 94.574 99.0412 93.3906C100.918 92.2783 102.465 90.7558 103.544 88.9596C105.475 85.2402 105.73 80.9715 104.253 77.0806C103.629 75.6256 102.701 74.2973 101.519 73.1711C100.251 71.9736 98.8107 70.9409 97.2379 70.1016C95.4271 69.128 93.5456 68.2696 91.6068 67.5326C90.0818 66.9516 88.7093 66.3869 87.4893 65.8386C86.4057 65.3623 85.3687 64.8014 84.3897 64.1621C83.623 63.6686 82.957 63.0549 82.4225 62.3491C81.9606 61.7083 81.7201 60.9544 81.7324 60.1861C81.7222 59.479 81.9369 58.7845 82.35 58.1876C82.7988 57.5629 83.3974 57.0409 84.1 56.6616C84.9588 56.1974 85.8934 55.863 86.8679 55.6711C88.0642 55.4271 89.2871 55.3097 90.5126 55.3211C91.5433 55.3244 92.5725 55.3922 93.5931 55.5241C94.6953 55.6609 95.7857 55.8679 96.8566 56.1436C97.9458 56.4208 99.0112 56.7717 100.044 57.1936C101.046 57.6037 102.004 58.0981 102.907 58.6706V48.6501C101.028 47.9974 99.0791 47.5282 97.093 47.2501C94.6945 46.9297 92.2728 46.7788 89.8492 46.7986C87.2 46.7855 84.5585 47.0616 81.9802 47.6211C79.6498 48.11 77.4339 48.9789 75.438 50.1866C73.5839 51.3205 72.0529 52.846 70.9735 54.6351C69.8297 56.6219 69.2637 58.8462 69.3304 61.0926C69.2459 64.0633 70.3117 66.9653 72.3384 69.2826C74.8249 71.8519 77.9602 73.8217 81.4694 75.0191C83.0706 75.6258 84.5638 76.2196 85.949 76.8006C87.1988 77.3111 88.4001 77.9164 89.5404 78.6101C90.4602 79.1593 91.2679 79.8523 91.927 80.6576C92.5066 81.388 92.8141 82.2705 92.8039 83.1741C92.8092 83.8512 92.6198 84.5176 92.2549 85.1061C91.8495 85.7385 91.2797 86.2688 90.5965 86.6496C89.7416 87.1281 88.8063 87.4734 87.8286 87.6716C86.555 87.933 85.2524 88.0563 83.9475 88.0391C81.3866 88.0348 78.8463 87.6202 76.4407 86.8141C73.9275 85.9815 71.5969 84.7429 69.5591 83.1566V83.1566ZM49.9095 56.4236H65.1595V47.5791H22.6387V56.4236H37.82V95.8126H49.9095V56.4236Z" fill="#EBEBEB"/>
</svg>
