<svg width="30" height="30" viewBox="0 0 30 30" fill="none" xmlns="http://www.w3.org/2000/svg">
<path d="M28.75 3.76249C28.75 3.76249 26.2275 5.25249 24.825 5.67499C24.0722 4.80938 23.0717 4.19586 21.9588 3.9174C20.8459 3.63894 19.6744 3.70899 18.6026 4.11806C17.5308 4.52713 16.6106 5.25549 15.9662 6.20464C15.3219 7.15378 14.9846 8.27791 15 9.42499V10.675C12.8033 10.732 10.6266 10.2448 8.66376 9.2568C6.70093 8.26884 5.0129 6.81079 3.75 5.01249C3.75 5.01249 -1.25 16.2625 10 21.2625C7.42566 23.01 4.35895 23.8862 1.25 23.7625C12.5 30.0125 26.25 23.7625 26.25 9.38749C26.25 9.03999 26.215 8.69249 26.15 8.34999C27.425 7.09249 28.75 3.76249 28.75 3.76249Z" stroke="#8892B0" stroke-width="1.5" stroke-linecap="round" stroke-linejoin="round"/>
</svg>
